<?xml version="1.0" standalone="no"?>
<!DOCTYPE svg PUBLIC "-//W3C//DTD SVG 20010904//EN"
 "http://www.w3.org/TR/2001/REC-SVG-20010904/DTD/svg10.dtd">
<svg version="1.0" xmlns="http://www.w3.org/2000/svg"
 width="153.000000pt" height="130.000000pt" viewBox="0 0 153.000000 130.000000"
 preserveAspectRatio="xMidYMid meet">

<g transform="translate(0.000000,130.000000) scale(0.100000,-0.100000)"
fill="#000000" stroke="none">
<path d="M80 1225 l0 -65 115 0 115 0 0 65 0 65 -115 0 -115 0 0 -65z"/>
<path d="M680 1230 l0 -60 385 0 385 0 0 60 0 60 -385 0 -385 0 0 -60z"/>
<path d="M565 120 l-430 -5 45 -46 c64 -66 91 -71 339 -67 192 3 209 5 244 25
l37 23 43 -23 c40 -21 55 -22 325 -25 l282 -3 0 65 0 66 -227 -2 c-126 -2
-421 -5 -658 -8z"/>
</g>
</svg>
